<svg xmlns="http://www.w3.org/2000/svg" xmlns:xlink="http://www.w3.org/1999/xlink" width="173" height="39" viewBox="0 0 173 39">
  <defs>
    <polygon id="signature_svg-a" points="0 .464 150.356 .464 150.356 38.974 0 38.974"/>
  </defs>
  <g fill="none" fill-rule="evenodd" transform="translate(0 -1)">
    <g transform="translate(0 .562)">
      <mask id="signature_svg-b" fill="#fff">
        <use xlink:href="#signature_svg-a"/>
      </mask>
      <path fill="#231F20" d="M77.6734172,19.6683077 C77.6232574,19.5124103 77.5730976,19.3554872 77.5239615,19.1995897 C75.9935769,19.641641 74.464216,20.0826667 72.8652456,20.5452308 C73.6616598,21.5606154 73.6852041,21.6139487 74.5276834,21.2426667 C75.5994645,20.7698462 76.6272278,20.1985641 77.6734172,19.6683077 M148.496956,13.8395897 C148.510263,13.6642051 148.522547,13.4877949 148.535855,13.3113846 C147.913464,12.950359 147.326902,12.4806154 146.65947,12.2447179 C143.159547,11.0088205 139.682145,9.68369231 136.116707,8.66625641 C128.67566,6.54215385 121.101536,5.07138462 113.386145,4.28676923 C103.612157,3.29292308 93.8207663,2.86625641 84.003784,2.88676923 C83.6782574,2.88676923 83.3517071,2.95241026 82.7088432,3.02317949 C87.099358,5.84164103 89.7823935,9.64266667 91.7273639,14.4088205 C92.7100858,12.3339487 93.4727189,10.6242051 94.3407899,8.96779487 C94.5270976,8.61189744 95.088068,8.45189744 95.4760385,8.20164103 C95.5374586,8.66420513 95.7892811,9.21292308 95.6285651,9.57805128 C94.6530089,11.7852308 93.6037485,13.9606154 92.5381095,16.1257436 C91.9126479,17.3965128 92.0252515,17.6939487 93.3979911,17.6170256 C97.679997,17.3780513 101.960979,17.0970256 106.241962,16.8170256 C111.943796,16.4436923 117.640512,15.961641 123.348488,15.7001026 C129.377896,15.4242051 135.424707,15.4590769 141.451044,15.1390769 C143.815719,15.0129231 146.14866,14.2898462 148.496956,13.8395897 M25.3301686,7.20676923 C23.6247367,6.60984615 21.9070207,6.04471795 20.2241095,5.39138462 C19.8750385,5.256 19.4123402,4.77805128 19.4317899,4.48779487 C19.4543107,4.16369231 19.9159852,3.70420513 20.2742692,3.59651282 C21.7892988,3.14010256 23.3166124,2.62830769 24.8756598,2.43958974 C28.5260621,1.99958974 32.1918195,1.60471795 35.8616716,1.42830769 C41.6771331,1.14933333 47.4608609,1.57805128 53.2230917,2.48369231 C58.5379793,3.32061538 63.8282988,4.32882051 68.7142692,6.59138462 C72.0319793,8.12779487 75.1183402,10.1954872 78.1965118,12.1985641 C79.0451331,12.750359 79.6439793,13.856 80.0790385,14.8313846 C80.537642,15.8631795 80.1967604,16.390359 78.6172396,18.3031795 C78.8956775,18.3401026 79.132145,18.430359 79.3430207,18.3893333 C80.892855,18.0826667 82.428358,17.7770256 84.0324467,18.070359 C84.2678905,18.1134359 84.7633462,17.5452308 84.8994941,17.1729231 C85.4399911,15.6867692 86.5230325,14.8201026 88.0390858,14.3154872 C87.2467663,15.4272821 86.4554704,16.5390769 85.6621272,17.6508718 L85.8934763,18.0036923 C87.0133698,17.9298462 88.152713,17.9544615 89.2408728,17.7308718 C89.6616006,17.6447179 90.1560325,17.0529231 90.2952515,16.5934359 C90.9125237,14.5524103 90.0055533,12.7113846 88.9460562,11.1657436 C87.5774112,9.16882051 86.0675,7.0334359 84.1051272,5.74112821 C81.8694349,4.26933333 79.4382219,2.74317949 76.4439911,2.82830769 C74.2471982,2.89087179 72.0411923,2.61087179 69.8392811,2.4734359 C69.5547012,2.456 69.2076775,2.47548718 69.0039675,2.32369231 C68.5504822,1.98625641 68.1707012,1.55241026 67.7602101,1.15753846 C68.2474763,0.913435897 68.7480503,0.438564103 69.2199615,0.464205128 C72.0719024,0.622153846 74.9136065,0.957538462 77.7645237,1.11241026 C80.8232456,1.2785641 83.8891331,1.27651282 86.9488787,1.41087179 C94.9918432,1.76266667 103.044021,1.99958974 111.07163,2.56676923 C118.090926,3.06317949 125.040612,4.17805128 131.875648,5.94728205 C137.182346,7.31958974 142.489044,8.68061538 147.465098,11.0447179 C148.332145,11.4570256 149.158246,12.0518974 149.845127,12.7236923 C150.65792,13.5175385 150.481849,14.416 149.45818,14.9257436 C148.698618,15.3042051 147.856139,15.5452308 147.026967,15.7524103 C142.905678,16.7801026 138.692257,16.8672821 134.479861,16.9349744 C129.08308,17.0242051 123.682204,16.9811282 118.293612,17.2283077 C112.945967,17.4734359 107.613678,18.0426667 102.270127,18.401641 C99.6198491,18.5801026 96.9593343,18.6108718 94.3039379,18.7011282 C93.1799497,18.7390769 92.4193639,18.9288205 92.0590325,20.3442051 C91.7468136,21.5729231 90.741571,22.6580513 89.9205888,23.710359 C89.4578905,24.3052308 88.5222574,23.9318974 88.5273757,23.1421538 C88.5345414,22.2601026 88.6921864,21.3483077 88.9634586,20.5072821 C89.2756775,19.5411282 89.0934645,19.0918974 88.0421568,19.1062564 C86.568074,19.1267692 85.0919438,19.0867692 83.6229793,19.1872821 C83.2319379,19.2139487 82.7917604,19.5913846 82.5071805,19.9236923 C80.3861391,22.4047179 78.3787249,24.9883077 76.1809083,27.3965128 C73.1488018,30.7175385 69.9703107,33.9052308 66.882926,37.176 C66.5297604,37.5513846 66.3956598,38.1257436 66.0793462,38.5462564 C65.9196538,38.7595897 65.5787722,38.8354872 65.319784,38.9739487 C65.2297012,38.6847179 64.9819734,38.321641 65.0761509,38.1165128 C65.483571,37.2283077 65.9002041,36.3175385 66.4775533,35.5390769 C68.9947544,32.1390769 72.0002456,29.2036923 75.1081036,26.3442051 C76.9773225,24.6242051 78.5588905,22.590359 80.2704645,20.6970256 L79.9521036,20.3185641 C79.5651568,20.4908718 79.1751391,20.6580513 78.7902396,20.8365128 C77.3059201,21.5236923 75.8410503,22.256 74.3331864,22.8857436 C73.5551982,23.2108718 72.7178373,23.4888205 71.9132337,22.7801026 C71.723855,22.6129231 71.2908432,22.6754872 70.9776006,22.7072821 C69.6017899,22.8488205 68.2280266,23.0129231 66.855287,23.1811282 C66.6157485,23.2098462 66.348571,23.241641 66.1550976,23.3677949 C65.152926,24.0190769 64.2009142,24.6324103 63.6174231,22.896 C63.565216,22.7411282 63.043145,22.6498462 62.7565178,22.6826667 C56.663642,23.3831795 50.5666716,24.0518974 44.4850562,24.8344615 C36.9406183,25.8036923 29.4156302,26.9318974 21.869145,27.8775385 C16.2328254,28.5831795 10.5770562,29.1483077 4.92231065,29.6877949 C3.67650592,29.8057436 2.39282544,29.5842051 1.13371302,29.456 C0.198079882,29.3606154 -0.213434911,28.6683077 0.10902071,27.7985641 C0.195008876,27.5647179 0.41714497,27.321641 0.639281065,27.2262564 C0.744718935,27.1811282 1.09890828,27.4406154 1.1603284,27.6242051 C1.50223373,28.6385641 2.2505355,28.7011282 3.13703254,28.5924103 C11.7399438,27.5442051 20.3479734,26.5257436 28.9488373,25.4590769 C37.0184172,24.4570256 45.0828787,23.4067692 53.1493876,22.3811282 C57.3689497,21.8436923 61.6233166,21.4990769 65.7978373,20.7247179 C69.6632101,20.0077949 73.6381154,19.4724103 77.0827604,17.2765128 C79.0891509,15.9975385 79.3225473,14.5401026 77.3571036,13.2847179 C74.3331864,11.3524103 71.2642278,9.36061538 67.9577781,8.0385641 C64.0729556,6.48471795 59.9496183,5.46728205 55.8610858,4.50933333 C53.0132396,3.84164103 50.0599556,3.52984615 47.1353343,3.30317949 C43.6292692,3.03241026 40.1027308,2.93087179 36.5843817,2.92984615 C34.1419083,2.92882051 31.6922692,3.15241026 29.2590089,3.40882051 C27.8924112,3.5534359 26.5237663,3.87138462 25.2114231,4.28676923 C24.0925533,4.64164103 24.0444408,5.55035897 24.995429,6.29394872 C25.0896065,6.36882051 25.2267781,6.39035897 25.3178846,6.46728205 C25.4018254,6.53702564 25.4509615,6.64779487 25.514429,6.74112821 C25.4530089,6.896 25.3915888,7.05087179 25.3301686,7.20676923" mask="url(#signature_svg-b)"/>
    </g>
    <path fill="#231F20" d="M172.109408 26.3562051C171.59655 26.3562051 171.073456 26.4187692 170.570834 26.3459487 163.530041 25.3356923 156.508698 24.1808205 149.450503 23.3131282 140.316308 22.1900513 131.141166 21.4433846 121.928148 21.6382564 119.219521 21.6967179 116.523178 22.2392821 113.81455 22.4967179 112.150065 22.6546667 110.471249 22.6690256 108.800621 22.788 106.542408 22.9490256 104.263722 23.4310769 102.038266 23.242359 100.142432 23.082359 99.2436509 24.068 98.1821065 25.1767179 97.9507574 25.4187692 97.5085325 25.4608205 97.1625325 25.5951795 97.1553669 25.1777436 96.9762249 24.6259487 97.1748166 24.3674872 97.6907456 23.6997949 98.3540828 23.1408205 98.9948994 22.5787692 99.7288698 21.9367179 100.541663 21.3818462 101.243899 20.7090256 101.884716 20.0946667 102.407811 20.0228718 102.984136 20.7408205 103.155089 20.9551795 103.37313 21.2926154 103.574793 21.2967179 105.713237 21.3346667 107.988852 21.7869744 109.963509 21.2126154 113.473669 20.1931282 116.983828 19.7838974 120.581 19.8362051 124.662367 19.8946667 128.749876 19.9685128 132.824077 20.2013333 136.98529 20.4382564 141.142408 20.8085128 145.288266 21.2433846 149.59484 21.6956923 153.906533 22.1705641 158.178302 22.8659487 162.572911 23.5808205 166.922479 24.5705641 171.288426 25.4546667 171.587337 25.5162051 171.860657 25.7028718 172.145237 25.8310769 172.132953 26.0064615 172.121692 26.1808205 172.109408 26.3562051M39.7342101 11.4409231C39.4670325 14.7865641 39.2315888 17.5137436 39.0442574 20.244 39.0033107 20.8357949 38.7473935 21.5732308 39.7475178 21.818359 39.8939024 21.8542564 39.9072101 22.7701538 39.8294112 23.2552821 39.7915355 23.4881026 39.3032456 23.8778462 39.1845 23.8255385 38.823145 23.6634872 38.3205237 23.3578462 38.2683166 23.0419487 37.9735 21.2788718 37.809713 19.4942564 37.5681272 17.7219487 37.4954467 17.1916923 37.3142574 16.6768205 37.1822041 16.1557949 37.105429 15.8470769 36.9426657 15.5332308 36.9631391 15.2306667 37.114642 13.0009231 37.256932 10.7691282 37.5159201 8.55066667 37.5711982 8.07784615 38.0912219 7.66041026 38.3962751 7.21733333 38.7381805 7.60912821 39.2878905 7.95887179 39.378997 8.40297436 39.6236538 9.59579487 39.6707426 10.829641 39.7342101 11.4409231"/>
  </g>
</svg>
